<svg xmlns="http://www.w3.org/2000/svg" viewBox="0 0 3800 4800">
 <g><path fill="#0071BC" d="M0 4800h3800V840L2960 0H0"/><path fill="#2EA8DE" d="M2960 840h840L2960 0"/><path fill="#003A9A" d="M3800 1680V840h-840"/></g>
 <g><path fill="#FFF" d="M916 2972v-148c30-2 53-7 68-14 16-8 29-20 40-38 11-17 19-39 23-66 3-20 5-54 5-103 0-81 4-137 11-168 7-32 21-57 40-77 20-19 48-34 85-45 25-8 65-11 119-11h33v148c-46 0-75 3-89 8-13 5-22 13-29 23-6 11-9 29-9 55s-2 75-5 148c-2 41-7 74-16 100-9 25-20 46-33 62-14 17-34 34-62 52 25 14 45 30 60 49 16 19 28 42 36 69 9 27 14 63 16 108 3 68 4 112 4 132 0 27 4 46 10 57 7 10 17 19 30 24 13 6 42 8 87 8v149h-33c-56 0-98-4-128-13s-55-24-75-45c-21-20-35-46-42-76-7-31-10-79-10-144 0-76-4-126-10-148-9-33-23-57-41-71-19-15-47-23-85-25zm548 255v-174h174v174h-174zm352 0v-174h174v174h-174zm353 0v-174h174v174h-174zm715-255c-30 2-53 6-68 14-16 7-29 20-40 37-10 18-18 40-23 66-3 20-5 55-5 103 0 81-3 137-11 169-7 31-20 57-40 76-19 20-48 35-85 46-25 7-65 11-119 11h-33v-149c44 0 73-2 87-8 14-5 24-14 30-24 7-11 10-28 10-54 0-25 2-73 5-144 2-44 8-78 17-104s21-48 36-66 34-33 58-47c-31-20-53-40-67-58-20-28-33-62-40-105-4-29-7-92-9-191-1-31-3-51-9-62-5-10-14-18-28-23-13-6-43-9-90-9v-148h33c56 0 98 4 128 13 30 8 55 23 75 44s34 46 41 77c8 30 11 78 11 144 0 75 3 125 9 148 10 33 23 57 42 71s47 22 85 25v148z"/></g>
</svg>
