<svg xmlns="http://www.w3.org/2000/svg" viewBox="0 0 3800 4800">
 <g><path fill="#EFD559" d="M0 4800h3800V840L2960 0H0"/><path fill="#F6E592" d="M2960 840h840L2960 0"/><path fill="#E5C32D" d="M3800 1680V840h-840"/></g>
 <g><path fill="#515151" d="M3227 2971c-114-222-393-287-615-173-204 105-261 396-111 570 131 151 482 247 520 334 64 143-82 208-203 200-156-10-174-81-253-161l-223 131c161 398 1042 412 972-180-31-259-255-318-457-413-88-42-243-120-126-244 110-118 217 7 288 73l208-137zm-1666 793l-221 142c140 288 625 360 792 51 29-55 55-210 53-393l-8-796-277-5-2 808c0 99 27 274-84 319-147 59-185-58-253-126z"/></g>
</svg>
