<svg xmlns="http://www.w3.org/2000/svg" viewBox="0 0 3800 4800">
 <g><path fill="#8892BF" d="M0 4800h3800V840L2960 0H0"/><path fill="#D7EDFF" d="M2960 840h840L2960 0"/><path fill="#4F5B93" d="M3800 1680V840h-840"/></g>
 <g><path fill="#000" d="M1379 3316l-728-316v-175l728-315v207l-509 193 509 202m517 62h-186c10-65 30-121 61-169 31-47 92-111 184-191 78-68 124-114 138-135 14-22 21-43 21-63 0-30-12-56-36-76s-60-30-108-30c-55 0-99 15-133 44s-59 76-73 140l-190-33c25-94 72-168 143-222 70-54 156-81 256-81 106 0 187 26 246 79 59 52 89 115 89 188 0 42-13 85-38 127-25 43-95 110-208 204-70 59-114 100-131 123-16 23-28 55-35 95zm-208 64h206l-40 200h-206l40-200zm733 80v-205l509-200-509-198v-203l728 315v174"/></g>
</svg>
