<svg xmlns="http://www.w3.org/2000/svg" viewBox="0 0 3800 4800">
 <g><path fill="#005A9C" d="M0 4800h3800V840L2960 0H0"/><path fill="#338DCF" d="M2960 840h840L2960 0"/><path fill="#002769" d="M3800 1680V840h-840"/></g>
 <g fill="#EDA921"><path stroke="#000" stroke-width="178.4" d="M1307 2786c-29-29-69-46-111-46-87 0-158 71-158 158s71 158 158 158c42 0 82-17 111-47h1186c29 30 69 47 111 47 87 0 158-71 158-158s-71-158-158-158c-42 0-82 17-111 46H1307z"/><path stroke="#000" stroke-width="178.4" d="M1560 2400c0-42-17-82-46-112-62-61-162-61-224 0-61 62-61 162 0 224 30 29 70 46 112 46l838 838c0 42 17 82 46 111 62 62 162 62 224 0 61-61 61-161 0-223-30-30-70-46-112-46l-838-838z"/><path stroke="#000" stroke-width="178.4" d="M2012 2305c29-29 46-69 46-111 0-88-71-158-158-158s-158 70-158 158c0 42 17 82 46 111v1185c-29 30-46 70-46 112 0 87 71 158 158 158s158-71 158-158c0-42-17-82-46-112V2305z"/><path stroke="#000" stroke-width="178.4" d="M2398 2558c42 0 82-17 112-46 61-62 61-162 0-224-62-61-162-61-224 0-29 30-46 70-46 112l-838 838c-42 0-82 16-112 46-61 62-61 162 0 223 62 62 162 62 224 0 29-29 46-69 46-111l838-838z"/><path d="M1307 2786c-29-29-69-46-111-46-87 0-158 71-158 158s71 158 158 158c42 0 82-17 111-47h1186c29 30 69 47 111 47 87 0 158-71 158-158s-71-158-158-158c-42 0-82 17-111 46H1307z"/><path d="M1560 2400c0-42-17-82-46-112-62-61-162-61-224 0-61 62-61 162 0 224 30 29 70 46 112 46l838 838c0 42 17 82 46 111 62 62 162 62 224 0 61-61 61-161 0-223-30-30-70-46-112-46l-838-838z"/><path d="M2012 2305c29-29 46-69 46-111 0-88-71-158-158-158s-158 70-158 158c0 42 17 82 46 111v1185c-29 30-46 70-46 112 0 87 71 158 158 158s158-71 158-158c0-42-17-82-46-112V2305z"/><path d="M2398 2558c42 0 82-17 112-46 61-62 61-162 0-224-62-61-162-61-224 0-29 30-46 70-46 112l-838 838c-42 0-82 16-112 46-61 62-61 162 0 223 62 62 162 62 224 0 29-29 46-69 46-111l838-838z"/></g>
</svg>
